<svg width="2699" height="2591" viewBox="0 0 2699 2591" fill="none" xmlns="http://www.w3.org/2000/svg">
<rect width="2699" height="2591" fill="#2C2727"/>
<rect x="523" y="647" width="44" height="1124" fill="white"/>
<rect x="2131" y="647" width="44" height="1124" fill="white"/>
<rect x="567" y="603" width="44" height="44" fill="white"/>
<rect x="2087" y="1771" width="44" height="44" fill="white"/>
<rect x="1487" y="1859" width="44" height="44" fill="white"/>
<rect x="567" y="1771" width="44" height="44" fill="white"/>
<rect x="2087" y="603" width="44" height="44" fill="white"/>
<rect x="611" y="563" width="1476" height="44" fill="white"/>
<rect x="611" y="1815" width="556" height="44" fill="white"/>
<rect x="1531" y="1815" width="556" height="44" fill="white"/>
<rect x="1145" y="1815" width="44" height="436" fill="white"/>
<rect x="1443" y="1903" width="44" height="44" fill="white"/>
<rect x="1399" y="1947" width="44" height="44" fill="white"/>
<rect x="1355" y="1991" width="44" height="44" fill="white"/>
<rect x="1311" y="2033" width="44" height="44" fill="white"/>
<rect x="1267" y="2077" width="44" height="44" fill="white"/>
<rect x="1223" y="2121" width="44" height="44" fill="white"/>
<rect x="1179" y="2165" width="44" height="44" fill="white"/>
<rect x="862" y="1003" width="50" height="50" fill="white"/>
<rect x="878" y="1028" width="50" height="50" fill="white"/>
<rect x="732" y="1008" width="50" height="50" fill="white"/>
<rect x="707" y="1033" width="50" height="214" fill="white"/>
<rect x="1141" y="1053" width="50" height="244" fill="white"/>
<rect x="1229" y="1089.5" width="50" height="157.5" fill="white"/>
<rect x="1398" y="1089.5" width="50" height="157.5" fill="white"/>
<rect x="1488" y="1053" width="50" height="242.5" fill="white"/>
<rect x="1895.5" y="1089.5" width="50" height="157.5" fill="white"/>
<rect x="991" y="1096" width="50" height="201" fill="white"/>
<rect x="750" y="989" width="138" height="50" fill="white"/>
<rect x="1028.47" y="1053" width="138" height="50" transform="rotate(0.537971 1028.47 1053)" fill="white"/>
<rect x="1271.97" y="1047" width="138" height="50" transform="rotate(0.537971 1271.97 1047)" fill="white"/>
<rect x="1523.97" y="1051.5" width="138" height="50" transform="rotate(0.537971 1523.97 1051.5)" fill="white"/>
<rect x="1788.97" y="1050" width="105.223" height="50" transform="rotate(0.537971 1788.97 1050)" fill="white"/>
<rect x="1787.97" y="1134" width="88.1771" height="50" transform="rotate(0.537971 1787.97 1134)" fill="white"/>
<rect x="1787.47" y="1244.5" width="107.831" height="50" transform="rotate(0.537971 1787.47 1244.5)" fill="white"/>
<rect x="1787.47" y="1244.5" width="107.831" height="50" transform="rotate(0.537971 1787.47 1244.5)" fill="white"/>
<rect x="1537.47" y="1135" width="144.722" height="50" transform="rotate(0.537971 1537.47 1135)" fill="white"/>
<rect x="1517.47" y="1245.5" width="144.722" height="50" transform="rotate(0.537971 1517.47 1245.5)" fill="white"/>
<rect x="1272.47" y="1245.5" width="138" height="50" transform="rotate(0.537971 1272.47 1245.5)" fill="white"/>
<rect x="752" y="1247" width="138" height="50" fill="white"/>
<rect x="732" y="1217" width="50" height="50" fill="white"/>
<rect x="862" y="1222" width="50" height="50" fill="white"/>
<rect x="878" y="1197" width="50" height="50" fill="white"/>
<rect x="966" y="1247" width="50" height="50" fill="white"/>
<rect x="1009" y="1072" width="50" height="50" fill="white"/>
<rect x="1242" y="1222" width="50" height="50" fill="white"/>
<rect x="1247" y="1072" width="50" height="50" fill="white"/>
<rect x="1378" y="1072" width="50" height="50" fill="white"/>
<rect x="1378" y="1222" width="50" height="50" fill="white"/>
<rect x="1630" y="1072" width="50" height="50" fill="white"/>
<rect x="1655" y="1097" width="50" height="50" fill="white"/>
<rect x="1630" y="1161.5" width="50" height="50" fill="white"/>
<rect x="1630" y="1222" width="50" height="50" fill="white"/>
<rect x="1764" y="1161.5" width="50" height="50" fill="white"/>
<rect x="1764" y="1222" width="50" height="50" fill="white"/>
<rect x="1910" y="1247" width="50" height="50" fill="white"/>
<rect x="1910" y="1247" width="50" height="50" fill="white"/>
<rect x="1860" y="1161.5" width="50" height="50" fill="white"/>
<rect x="1868" y="1222" width="50" height="50" fill="white"/>
<rect x="1868" y="1072" width="50" height="50" fill="white"/>
<rect x="1739" y="1179.5" width="50" height="67.5" fill="white"/>
<rect x="1655" y="1179.5" width="50" height="67.5" fill="white"/>
<rect x="1860" y="1222" width="44" height="25" fill="white"/>
</svg>
